<svg xmlns="http://www.w3.org/2000/svg" width="24" height="24" viewBox="0 0 24 24"><path fill="#FFFFFF" d="M10.591 2.513a3.75 3.75 0 0 1 2.818 0l7.498 3.04A1.75 1.75 0 0 1 22 7.175v9.653a1.75 1.75 0 0 1-1.093 1.621l-7.498 3.04a3.75 3.75 0 0 1-2.818 0l-7.498-3.04A1.75 1.75 0 0 1 2 16.827V7.176a1.75 1.75 0 0 1 1.093-1.622zm2.254 1.39a2.25 2.25 0 0 0-1.69 0L9.24 4.68l7.527 2.927l2.669-1.03zm1.846 4.505L7.215 5.5L4.59 6.564l7.411 2.882zM3.5 16.828a.25.25 0 0 0 .156.231l7.499 3.04q.047.02.095.036v-9.371L3.5 7.75zm9.345 3.271l7.499-3.04a.25.25 0 0 0 .156-.232V7.774l-7.75 2.992v9.37z"/></svg>