<svg xmlns="http://www.w3.org/2000/svg" width="24" height="24" viewBox="0 0 24 24"><path fill="#FFFFFF" d="M17.03 11.03a.75.75 0 1 0-1.06-1.06L11 14.94l-1.97-1.97a.75.75 0 0 0-1.06 1.06l2.5 2.5a.75.75 0 0 0 1.06 0zm-1.036-6.946A2.25 2.25 0 0 0 13.75 2h-3.5a2.25 2.25 0 0 0-2.236 2H6.25A2.25 2.25 0 0 0 4 6.25v13.5A2.25 2.25 0 0 0 6.25 22h11.5A2.25 2.25 0 0 0 20 19.75V6.25A2.25 2.25 0 0 0 17.75 4h-1.764zm0 .012L16 4.25q0-.078-.005-.154M10.25 6.5h3.5c.78 0 1.467-.397 1.871-1h2.129a.75.75 0 0 1 .75.75v13.5a.75.75 0 0 1-.75.75H6.25a.75.75 0 0 1-.75-.75V6.25a.75.75 0 0 1 .75-.75h2.129c.404.603 1.091 1 1.871 1m0-3h3.5a.75.75 0 0 1 0 1.5h-3.5a.75.75 0 0 1 0-1.5"/></svg>