<svg xmlns="http://www.w3.org/2000/svg" width="24" height="24" viewBox="0 0 24 24"><path fill="#000000" d="M18.25 7a1.25 1.25 0 1 1-2.5 0a1.25 1.25 0 0 1 2.5 0M15.5 2.05A6.554 6.554 0 0 0 8.95 8.6c0 .387.05.76.11 1.104a.28.28 0 0 1-.07.244l-6.235 6.236a2.75 2.75 0 0 0-.806 1.944V20.3c0 .966.784 1.75 1.75 1.75h2.5a1.75 1.75 0 0 0 1.75-1.75v-1.25H9.7c.69 0 1.25-.56 1.25-1.25v-1.75h1.75a1.25 1.25 0 0 0 1.25-1.204c.496.128 1.02.204 1.55.204a6.554 6.554 0 0 0 6.55-6.55c0-3.631-2.953-6.45-6.55-6.45M10.45 8.6a5.054 5.054 0 0 1 5.05-5.05c2.802 0 5.05 2.181 5.05 4.95a5.054 5.054 0 0 1-5.05 5.05c-.68 0-1.38-.171-2.005-.44a.75.75 0 0 0-1.046.69v.75H10.7c-.69 0-1.25.56-1.25 1.25v1.75H7.7c-.69 0-1.25.56-1.25 1.25v1.5a.25.25 0 0 1-.25.25H3.7a.25.25 0 0 1-.25-.25v-2.172c0-.331.132-.65.366-.884l6.236-6.235a1.77 1.77 0 0 0 .486-1.564a5 5 0 0 1-.088-.845"/></svg>