<svg xmlns="http://www.w3.org/2000/svg" width="24" height="24" viewBox="0 0 24 24"><path fill="#FFFFFF" d="M5.5 8a2.5 2.5 0 1 1 5 0a2.5 2.5 0 0 1-5 0M8 4a4 4 0 1 0 0 8a4 4 0 0 0 0-8m7.5 5a1.5 1.5 0 1 1 3 0a1.5 1.5 0 0 1-3 0M17 6a3 3 0 1 0 0 6a3 3 0 0 0 0-6M4.25 14A2.25 2.25 0 0 0 2 16.25v.278a2 2 0 0 0 .014.208a4.5 4.5 0 0 0 .778 2.07C3.61 19.974 5.172 21 8 21c1.376 0 2.453-.243 3.29-.627a4.7 4.7 0 0 1-.622-1.365c-.626.29-1.485.492-2.668.492c-2.422 0-3.486-.85-3.98-1.555a3 3 0 0 1-.513-1.358l-.007-.08v-.257a.75.75 0 0 1 .75-.75h6.816a4.8 4.8 0 0 1 1.195-1.442A2.3 2.3 0 0 0 11.75 14zm18.25 3.75A3.75 3.75 0 0 0 18.75 14l-.102.007a.75.75 0 0 0 .102 1.493l.154.005A2.25 2.25 0 0 1 18.75 20l-.003.005l-.102.007a.75.75 0 0 0 .108 1.493V21.5l.2-.005A3.75 3.75 0 0 0 22.5 17.75m-6.5-3a.75.75 0 0 0-.75-.75l-.2.005a3.75 3.75 0 0 0 .2 7.495l.102-.007A.75.75 0 0 0 15.25 20l-.154-.005a2.25 2.25 0 0 1 .154-4.495l.102-.007A.75.75 0 0 0 16 14.75m3.5 3a.75.75 0 0 0-.75-.75h-3.5l-.102.007a.75.75 0 0 0 .102 1.493h3.5l.102-.007a.75.75 0 0 0 .648-.743"/></svg>